<svg width="64" height="39" viewBox="0 0 64 39" fill="none" xmlns="http://www.w3.org/2000/svg">
<path d="M6.60587 16.65C6.38223 17.2167 5.99517 17.5 5.44468 17.5H0.567692C0.412867 17.5 0.275245 17.45 0.154825 17.35C0.0516084 17.2333 0 17.1 0 16.95L0.0258042 16.8L5.65111 0.825C5.71993 0.608334 5.84895 0.416667 6.03818 0.25C6.22741 0.0833333 6.48545 0 6.8123 0H13.9859C14.3127 0 14.5708 0.0833333 14.76 0.25C14.9492 0.416667 15.0782 0.608334 15.1471 0.825L20.7724 16.8L20.7982 16.95C20.7982 17.1 20.738 17.2333 20.6175 17.35C20.5143 17.45 20.3853 17.5 20.2305 17.5H15.3535C14.803 17.5 14.4159 17.2167 14.1923 16.65L13.5472 14.9H7.25097L6.60587 16.65ZM10.3991 4.825L8.56699 10.025H12.2312L10.3991 4.825Z" fill="url(#paint0_angular_221_7359)"/>
<path d="M40.6573 12.375C40.8465 12.375 41.01 12.4417 41.1476 12.575C41.2852 12.7083 41.354 12.8667 41.354 13.05V16.825C41.354 17.0083 41.2852 17.1667 41.1476 17.3C41.01 17.4333 40.8465 17.5 40.6573 17.5H25.5877C25.3984 17.5 25.235 17.4333 25.0974 17.3C24.9598 17.1667 24.8909 17.0083 24.8909 16.825V0.675C24.8909 0.491667 24.9598 0.333334 25.0974 0.2C25.235 0.0666668 25.3984 0 25.5877 0H31.1614C31.3506 0 31.514 0.0666668 31.6516 0.2C31.7893 0.333334 31.8581 0.491667 31.8581 0.675V12.375H40.6573Z" fill="url(#paint1_angular_221_7359)"/>
<path d="M62.5808 12.375C62.77 12.375 62.9334 12.4417 63.071 12.575C63.2087 12.7083 63.2775 12.8667 63.2775 13.05V16.825C63.2775 17.0083 63.2087 17.1667 63.071 17.3C62.9334 17.4333 62.77 17.5 62.5808 17.5H47.5111C47.3219 17.5 47.1585 17.4333 47.0209 17.3C46.8832 17.1667 46.8144 17.0083 46.8144 16.825V0.675C46.8144 0.491667 46.8832 0.333334 47.0209 0.2C47.1585 0.0666668 47.3219 0 47.5111 0H53.0848C53.2741 0 53.4375 0.0666668 53.5751 0.2C53.7127 0.333334 53.7815 0.491667 53.7815 0.675V12.375H62.5808Z" fill="url(#paint2_angular_221_7359)"/>
<path d="M11.7409 27.35C13.6332 27.55 15.147 27.875 16.2824 28.325C17.435 28.775 18.2694 29.3667 18.7854 30.1C19.3015 30.8333 19.5596 31.75 19.5596 32.85C19.5596 34.05 19.1553 35.1 18.3468 36C17.5554 36.8833 16.4545 37.5667 15.0438 38.05C13.6332 38.5167 12.0247 38.75 10.2185 38.75C8.20573 38.75 6.50265 38.5083 5.10923 38.025C3.7158 37.5417 2.67503 36.9 1.98692 36.1C1.29881 35.2833 0.954755 34.3917 0.954755 33.425C0.954755 33.2583 1.00636 33.125 1.10958 33.025C1.23 32.925 1.37622 32.875 1.54825 32.875H6.83811C7.19936 32.875 7.49181 32.9833 7.71545 33.2C8.0079 33.4667 8.33475 33.65 8.69601 33.75C9.05727 33.8333 9.56475 33.875 10.2185 33.875C11.8527 33.875 12.6698 33.6333 12.6698 33.15C12.6698 32.95 12.558 32.7833 12.3344 32.65C12.128 32.5 11.7495 32.375 11.199 32.275C10.6657 32.1583 9.8744 32.0417 8.82503 31.925C6.46825 31.6583 4.66195 31.0917 3.40615 30.225C2.15035 29.3417 1.52245 28.1 1.52245 26.5C1.52245 25.3667 1.8751 24.3667 2.58042 23.5C3.28573 22.6333 4.28349 21.9583 5.5737 21.475C6.88111 20.9917 8.39496 20.75 10.1152 20.75C11.9043 20.75 13.4698 21.025 14.8116 21.575C16.1534 22.1083 17.177 22.775 17.8823 23.575C18.5876 24.375 18.9403 25.1583 18.9403 25.925C18.9403 26.0917 18.8801 26.225 18.7596 26.325C18.6564 26.425 18.5102 26.475 18.321 26.475H12.7731C12.4806 26.475 12.214 26.375 11.9731 26.175C11.7839 26.0083 11.5603 25.875 11.3022 25.775C11.0442 25.675 10.6485 25.625 10.1152 25.625C8.96265 25.625 8.38636 25.8583 8.38636 26.325C8.38636 26.575 8.60999 26.775 9.05727 26.925C9.50454 27.0583 10.3991 27.2 11.7409 27.35Z" fill="url(#paint3_angular_221_7359)"/>
<path d="M32.2451 38.75C29.3551 38.75 27.0585 38.1417 25.3554 36.925C23.6696 35.7083 22.8266 33.8083 22.8266 31.225V21.675C22.8266 21.4917 22.8954 21.3333 23.033 21.2C23.1707 21.0667 23.3341 21 23.5233 21H28.9164C29.1056 21 29.2691 21.0667 29.4067 21.2C29.5443 21.3333 29.6131 21.4917 29.6131 21.675V31.625C29.6131 32.3083 29.8453 32.8333 30.3098 33.2C30.7915 33.5667 31.4366 33.75 32.2451 33.75C33.0537 33.75 33.6902 33.5667 34.1546 33.2C34.6363 32.8333 34.8772 32.3083 34.8772 31.625V21.675C34.8772 21.4917 34.946 21.3333 35.0836 21.2C35.2212 21.0667 35.3846 21 35.5739 21H40.9669C41.1562 21 41.3196 21.0667 41.4572 21.2C41.5949 21.3333 41.6637 21.4917 41.6637 21.675V31.225C41.6637 33.8083 40.8121 35.7083 39.109 36.925C37.4232 38.1417 35.1352 38.75 32.2451 38.75Z" fill="url(#paint4_angular_221_7359)"/>
<path d="M61.5486 29.375C62.2195 29.575 62.7958 30.0167 63.2775 30.7C63.7592 31.3667 64 32.1333 64 33C64 34.85 63.3807 36.2333 62.1421 37.15C60.9035 38.05 59.0972 38.5 56.7232 38.5H46.0919C45.9027 38.5 45.7392 38.4333 45.6016 38.3C45.464 38.1667 45.3952 38.0083 45.3952 37.825V21.675C45.3952 21.4917 45.464 21.3333 45.6016 21.2C45.7392 21.0667 45.9027 21 46.0919 21H56.4652C58.908 21 60.7057 21.4333 61.8583 22.3C63.028 23.15 63.6129 24.4417 63.6129 26.175V26.25C63.6129 27.05 63.3893 27.7333 62.942 28.3C62.4948 28.8667 62.0303 29.225 61.5486 29.375ZM56.62 26.4C56.62 26.1 56.5254 25.8417 56.3362 25.625C56.1641 25.4083 55.9061 25.3 55.562 25.3H52.1043V27.575H55.562C55.9061 27.575 56.1641 27.4583 56.3362 27.225C56.5254 26.975 56.62 26.7 56.62 26.4ZM55.8459 34.2C56.2415 34.2 56.534 34.075 56.7232 33.825C56.9297 33.5583 57.0329 33.2667 57.0329 32.95V32.925C57.0329 32.6083 56.9211 32.3333 56.6974 32.1C56.491 31.8667 56.2071 31.75 55.8459 31.75H52.1043V34.2H55.8459Z" fill="url(#paint5_angular_221_7359)"/>
<defs>
<radialGradient id="paint0_angular_221_7359" cx="0" cy="0" r="1" gradientUnits="userSpaceOnUse" gradientTransform="translate(32 19.375) rotate(90) scale(19.375 32)">
<stop stop-color="#30A8FF"/>
<stop offset="0.239583" stop-color="#A6E69C"/>
<stop offset="0.494792" stop-color="#FFEE54"/>
<stop offset="0.75" stop-color="#FFB3CE"/>
<stop offset="1" stop-color="#30A8FF"/>
</radialGradient>
<radialGradient id="paint1_angular_221_7359" cx="0" cy="0" r="1" gradientUnits="userSpaceOnUse" gradientTransform="translate(32 19.375) rotate(90) scale(19.375 32)">
<stop stop-color="#30A8FF"/>
<stop offset="0.239583" stop-color="#A6E69C"/>
<stop offset="0.494792" stop-color="#FFEE54"/>
<stop offset="0.75" stop-color="#FFB3CE"/>
<stop offset="1" stop-color="#30A8FF"/>
</radialGradient>
<radialGradient id="paint2_angular_221_7359" cx="0" cy="0" r="1" gradientUnits="userSpaceOnUse" gradientTransform="translate(32 19.375) rotate(90) scale(19.375 32)">
<stop stop-color="#30A8FF"/>
<stop offset="0.239583" stop-color="#A6E69C"/>
<stop offset="0.494792" stop-color="#FFEE54"/>
<stop offset="0.75" stop-color="#FFB3CE"/>
<stop offset="1" stop-color="#30A8FF"/>
</radialGradient>
<radialGradient id="paint3_angular_221_7359" cx="0" cy="0" r="1" gradientUnits="userSpaceOnUse" gradientTransform="translate(32 19.375) rotate(90) scale(19.375 32)">
<stop stop-color="#30A8FF"/>
<stop offset="0.239583" stop-color="#A6E69C"/>
<stop offset="0.494792" stop-color="#FFEE54"/>
<stop offset="0.75" stop-color="#FFB3CE"/>
<stop offset="1" stop-color="#30A8FF"/>
</radialGradient>
<radialGradient id="paint4_angular_221_7359" cx="0" cy="0" r="1" gradientUnits="userSpaceOnUse" gradientTransform="translate(32 19.375) rotate(90) scale(19.375 32)">
<stop stop-color="#30A8FF"/>
<stop offset="0.239583" stop-color="#A6E69C"/>
<stop offset="0.494792" stop-color="#FFEE54"/>
<stop offset="0.75" stop-color="#FFB3CE"/>
<stop offset="1" stop-color="#30A8FF"/>
</radialGradient>
<radialGradient id="paint5_angular_221_7359" cx="0" cy="0" r="1" gradientUnits="userSpaceOnUse" gradientTransform="translate(32 19.375) rotate(90) scale(19.375 32)">
<stop stop-color="#30A8FF"/>
<stop offset="0.239583" stop-color="#A6E69C"/>
<stop offset="0.494792" stop-color="#FFEE54"/>
<stop offset="0.75" stop-color="#FFB3CE"/>
<stop offset="1" stop-color="#30A8FF"/>
</radialGradient>
</defs>
</svg>
