<svg width="24" height="24" viewBox="0 0 24 24" fill="none" xmlns="http://www.w3.org/2000/svg">
<g clip-path="url(#clip0_221_7126)">
<path fill-rule="evenodd" clip-rule="evenodd" d="M1.39243 13.9411C1.25319 12.7695 1.23462 9.75165 2.2743 7.05368C3.57391 3.68121 7.05499 0.498745 7.51913 0.213748C7.98328 -0.0712493 8.58666 -0.0712493 8.91156 0.213748C9.13599 0.410609 9.20539 0.743453 9.25745 0.99311C9.28076 1.10488 9.30058 1.19998 9.32929 1.25874C9.42212 1.44874 9.60778 1.40124 9.83985 1.30624C10.0719 1.21124 14.2492 0.356246 17.916 2.77872C21.5827 5.2012 23.7178 8.19367 23.9034 8.52616C24.0891 8.85866 23.9962 9.42865 23.7178 9.61865C23.4393 9.80865 22.9751 9.80865 22.8359 9.76115C22.6966 9.71365 22.7431 9.95115 22.7895 10.0461C22.8359 10.1411 23.7642 14.2736 21.5363 18.0736C19.3084 21.8735 17.1733 23.6785 16.8484 23.916C16.5235 24.1535 15.7345 23.8685 15.6417 23.2985C15.6184 23.1556 15.6038 23.0306 15.5915 22.9242C15.5546 22.6065 15.537 22.4554 15.3632 22.491C15.3537 22.493 15.3388 22.4962 15.3188 22.5007C14.8476 22.6046 11.5175 23.3393 8.401 22.0635C5.152 20.7335 2.41355 17.8836 1.67092 17.0761C1.51613 16.9078 1.35327 16.7415 1.19243 16.5773C0.581638 15.9538 0 15.3601 0 14.7961C0 14.0836 0.881873 13.8936 1.06753 13.9886C1.25319 14.0836 1.40641 14.0692 1.39243 13.9411ZM15.794 12.9568C16.4487 12.5697 16.4487 11.6223 15.794 11.2352L10.8839 8.3323C10.2173 7.93819 9.375 8.41872 9.375 9.19312V14.9988C9.375 15.7732 10.2173 16.2537 10.8839 15.8596L15.794 12.9568Z" fill="white"/>
</g>
<defs>
<clipPath id="clip0_221_7126">
<rect width="24" height="24" fill="white"/>
</clipPath>
</defs>
</svg>
