<svg width="64" height="64" viewBox="0 0 64 64" fill="none" xmlns="http://www.w3.org/2000/svg">
<path fill-rule="evenodd" clip-rule="evenodd" d="M60 32C60 47.464 47.464 60 32 60C16.536 60 4 47.464 4 32C4 16.536 16.536 4 32 4C47.464 4 60 16.536 60 32ZM32.9793 24.6558C30.2515 25.7982 24.8194 28.1529 16.6595 31.6966C15.354 32.2328 14.6545 32.7457 14.5846 33.2586C14.4814 34.1259 15.5669 34.4628 17.0313 34.9172C17.2203 34.9759 17.4156 35.0365 17.6154 35.1004C19.0609 35.5667 20.9726 36.1029 21.9751 36.1262C22.8843 36.1496 23.8868 35.7765 25.0059 35.0072C32.6296 29.8548 36.5463 27.2436 36.8028 27.197C36.9893 27.1504 37.2224 27.1038 37.3856 27.2436C37.5488 27.3835 37.5488 27.6633 37.5255 27.7332C37.4143 28.1967 32.8661 32.419 30.7965 34.3404C30.2633 34.8354 29.8945 35.1777 29.8086 35.2636C29.5899 35.4887 29.3673 35.7018 29.1532 35.9068C27.815 37.1877 26.8107 38.1489 29.2024 39.7166C30.2897 40.4344 31.1667 41.0327 32.0303 41.622C33.0741 42.334 34.0982 43.0328 35.4505 43.9131C35.7691 44.1223 36.0742 44.3393 36.3717 44.551C37.5331 45.3772 38.5811 46.1227 39.8802 46.0113C40.6262 45.9414 41.3956 45.242 41.7919 43.1437C42.7245 38.2012 44.543 27.4535 44.9626 23.0238C45.0092 22.6508 44.9626 22.1612 44.916 21.9281C44.8694 21.6949 44.7994 21.3918 44.5197 21.1587C44.1699 20.8789 43.657 20.8323 43.4239 20.8323C42.3748 20.8556 40.7428 21.4152 32.9793 24.6558Z" fill="white"/>
</svg>
