<svg width="64" height="64" viewBox="0 0 64 64" fill="none" xmlns="http://www.w3.org/2000/svg">
<g clip-path="url(#clip0_2_36)">
<path fill-rule="evenodd" clip-rule="evenodd" d="M25.392 40.3598L25.39 22.2502L42.682 31.3363L25.392 40.3598ZM63.36 19.1121C63.36 19.1121 62.734 14.6709 60.816 12.7151C58.382 10.147 55.654 10.1349 54.404 9.98584C45.448 9.33324 32.014 9.33325 32.014 9.33325H31.986C31.986 9.33325 18.552 9.33324 9.59601 9.98584C8.34401 10.1349 5.61801 10.147 3.18201 12.7151C1.26401 14.6709 0.639994 19.1121 0.639994 19.1121C0.639994 19.1121 0 24.3289 0 29.5436V34.4341C0 39.6508 0.639994 44.8656 0.639994 44.8656C0.639994 44.8656 1.26401 49.3068 3.18201 51.2626C5.61801 53.8307 8.81599 53.7501 10.24 54.018C15.36 54.5135 32 54.6666 32 54.6666C32 54.6666 45.448 54.6464 54.404 53.9939C55.654 53.8428 58.382 53.8307 60.816 51.2626C62.734 49.3068 63.36 44.8656 63.36 44.8656C63.36 44.8656 64 39.6508 64 34.4341V29.5436C64 24.3289 63.36 19.1121 63.36 19.1121Z" fill="white"/>
</g>
<defs>
<clipPath id="clip0_2_36">
<rect width="64" height="64" fill="white"/>
</clipPath>
</defs>
</svg>
