<svg width="64" height="64" viewBox="0 0 64 64" fill="none" xmlns="http://www.w3.org/2000/svg">
<path fill-rule="evenodd" clip-rule="evenodd" d="M5.33368 15.1934C5.33368 14.0888 6.22911 13.1934 7.33368 13.1934H43.4313C45.7894 13.1934 47.7857 13.4404 49.4506 13.9116C49.4744 13.9183 49.498 13.9255 49.5214 13.9331C51.234 14.4869 52.6891 15.332 53.9874 16.522C54.0155 16.5477 54.0428 16.5743 54.0694 16.6016C55.2904 17.8565 56.1869 19.2915 56.7103 20.9597C57.211 22.5556 57.4637 24.523 57.4637 26.872V29.7917C57.4637 33.6797 56.7908 37.0167 55.0741 39.2889L55.074 39.2891C53.9147 40.8233 52.3194 41.9031 50.4023 42.6056L58.2583 52.9299C58.7185 53.5348 58.7962 54.3482 58.4586 55.0292C58.1211 55.7102 57.4267 56.141 56.6667 56.141H45.4167C44.7608 56.141 44.1467 55.8195 43.773 55.2805L35.5856 43.47H19.3807V54.141C19.3807 55.2456 18.4852 56.141 17.3807 56.141H7.33368C6.22911 56.141 5.33368 55.2456 5.33368 54.141V15.1934ZM9.33368 17.1934V52.141H15.3807V41.47C15.3807 40.3655 16.2761 39.47 17.3807 39.47H36.6327C37.2885 39.47 37.9027 39.7916 38.2763 40.3306L46.4638 52.141H52.6317L45.3891 42.6228C44.9622 42.0619 44.8622 41.3177 45.1257 40.664C45.3892 40.0102 45.9774 39.5435 46.6739 39.4354C49.3696 39.0169 50.9763 38.0769 51.8825 36.8778C52.8126 35.6467 53.4637 33.3777 53.4637 29.7917V26.872C53.4637 24.7831 53.2357 23.2472 52.8937 22.157C52.5796 21.1557 52.0445 20.2674 51.2423 19.4322C50.3947 18.6652 49.4659 18.124 48.3256 17.7504C47.1069 17.41 45.5043 17.1934 43.4313 17.1934H9.33368ZM15.3807 23.777C15.3807 22.6725 16.2761 21.777 17.3807 21.777H41.807C42.6008 21.777 43.3463 21.843 44.0092 21.9962C44.6488 22.1439 45.3519 22.4048 45.9288 22.8948C47.0407 23.8388 47.4167 25.2922 47.4167 26.6967V29.9667C47.4167 31.4082 47.0513 32.8736 45.9288 33.8266C45.3177 34.3455 44.5766 34.5832 43.952 34.7083C43.3155 34.8358 42.6041 34.8837 41.8623 34.8859C41.8439 34.8864 41.8255 34.8867 41.807 34.8867H17.3807C16.2761 34.8867 15.3807 33.9913 15.3807 32.8867V23.777ZM41.7549 30.8867C41.7722 30.8862 41.7896 30.886 41.807 30.886C42.429 30.886 42.871 30.8454 43.1661 30.7863C43.231 30.7732 43.2821 30.7607 43.3212 30.7497C43.3638 30.6243 43.4167 30.3783 43.4167 29.9667V26.6967C43.4167 26.3151 43.364 26.0841 43.3223 25.9672C43.3205 25.9621 43.3187 25.9572 43.317 25.9527C43.2719 25.9366 43.2043 25.9156 43.1087 25.8935C42.824 25.8277 42.3966 25.777 41.807 25.777H19.3807V30.8867H41.7549ZM43.289 25.8911C43.2884 25.8903 43.2882 25.8898 43.2882 25.8898C43.2882 25.8898 43.2885 25.8902 43.289 25.8911ZM43.285 30.8355C43.285 30.8355 43.2853 30.8351 43.2858 30.8343C43.2853 30.8351 43.285 30.8355 43.285 30.8355Z" fill="white"/>
<path d="M54.643 14.526C56.483 14.526 57.9757 13.0337 57.9757 11.1927C57.9757 9.35171 56.483 7.85938 54.643 7.85938C52.8017 7.85938 51.309 9.35171 51.309 11.1927C51.309 13.0337 52.8017 14.526 54.643 14.526Z" fill="white"/>
</svg>
