<svg width="64" height="64" viewBox="0 0 64 64" fill="none" xmlns="http://www.w3.org/2000/svg">
<path fill-rule="evenodd" clip-rule="evenodd" d="M40.6042 4H23.425C7.73333 4 4 7.73333 4 23.3958V40.575C4 56.2667 7.70417 60 23.3958 60H40.575C56.2667 60 60 56.2958 60 40.6042V23.425C60 7.73333 56.2958 4 40.6042 4ZM48.625 21.7917C49.85 21.7917 50.1125 22.4042 49.85 23.2792C49.412 25.392 45.4688 31.101 44.5551 32.4238C44.4345 32.5985 44.3667 32.6966 44.3667 32.7C43.9292 33.3709 43.7542 33.7209 44.3667 34.5084C44.5752 34.8213 45.0502 35.2864 45.5933 35.8181C46.1133 36.3274 46.6958 36.8978 47.1667 37.4542C48.9167 39.4375 50.2292 41.1001 50.6083 42.2375C50.9583 43.375 50.375 43.9584 49.2083 43.9584H45.125C44.0417 43.9584 43.4883 43.3424 42.3005 42.0202C41.7934 41.4557 41.1707 40.7624 40.3417 39.9334C37.9208 37.6 36.9 37.3084 36.2875 37.3084C35.4417 37.3084 35.2083 37.5417 35.2083 38.7084V42.3834C35.2083 43.375 34.8875 43.9584 32.2917 43.9584C27.975 43.9584 23.2208 41.3334 19.8375 36.4917C14.7625 29.4042 13.3917 24.0375 13.3917 22.9584C13.3917 22.3459 13.625 21.7917 14.7917 21.7917H18.875C19.925 21.7917 20.3042 22.2584 20.7125 23.3375C22.6958 29.1709 26.0792 34.2459 27.45 34.2459C27.975 34.2459 28.2083 34.0125 28.2083 32.7V26.6917C28.1007 25.0064 27.5083 24.2689 27.0677 23.7205C26.7915 23.3767 26.575 23.1071 26.575 22.725C26.575 22.2875 26.9833 21.7917 27.625 21.7917H34.0417C34.9167 21.7917 35.2083 22.2292 35.2083 23.2792V31.3875C35.2083 32.2625 35.5875 32.5542 35.85 32.5542C36.375 32.5542 36.7833 32.2625 37.7458 31.3C40.6917 28.0334 42.7625 22.9584 42.7625 22.9584C43.025 22.3459 43.4917 21.7917 44.5417 21.7917H48.625Z" fill="white"/>
</svg>
