<svg width="64" height="64" viewBox="0 0 64 64" fill="none" xmlns="http://www.w3.org/2000/svg">
<path fill-rule="evenodd" clip-rule="evenodd" d="M6.00018 31.2206C16.5378 31.0893 22.4616 30.3683 26.4148 26.4149C30.3683 22.4614 31.0888 16.5378 31.2203 6.00018C17.4742 6.40494 6.40477 17.4745 6.00018 31.2206ZM32.7801 6.00018C32.9107 16.5378 33.6313 22.4614 37.5855 26.4149C41.5387 30.3683 47.4626 31.089 58.0002 31.2206C57.5956 17.4745 46.5261 6.40494 32.7801 6.00018ZM58.0002 32.7797C47.4626 32.9113 41.5387 33.6317 37.5855 37.5855C33.6321 41.5389 32.9107 47.4626 32.7801 58.0002C46.5261 57.5954 57.5956 46.5258 58.0002 32.7797ZM31.2203 58.0002C31.0888 47.4626 30.3683 41.5389 26.4148 37.5855C22.4616 33.632 16.5378 32.9113 6.00018 32.7797C6.40477 46.5258 17.4742 57.5954 31.2203 58.0002Z" fill="white"/>
</svg>
