<svg width="24" height="24" viewBox="0 0 24 24" fill="none" xmlns="http://www.w3.org/2000/svg">
<path d="M10.5 20.25C10.5 20.4489 10.421 20.6397 10.2803 20.7803C10.1397 20.921 9.94891 21 9.75 21H4.5C4.10218 21 3.72064 20.842 3.43934 20.5607C3.15804 20.2794 3 19.8978 3 19.5V4.5C3 4.10218 3.15804 3.72064 3.43934 3.43934C3.72064 3.15804 4.10218 3 4.5 3H9.75C9.94891 3 10.1397 3.07902 10.2803 3.21967C10.421 3.36032 10.5 3.55109 10.5 3.75C10.5 3.94891 10.421 4.13968 10.2803 4.28033C10.1397 4.42098 9.94891 4.5 9.75 4.5H4.5V19.5H9.75C9.94891 19.5 10.1397 19.579 10.2803 19.7197C10.421 19.8603 10.5 20.0511 10.5 20.25ZM9.21996 11.4694L12.97 7.71937C13.1107 7.57864 13.3016 7.49958 13.5006 7.49958C13.6996 7.49958 13.8905 7.57864 14.0312 7.71937C14.1719 7.86011 14.251 8.05098 14.251 8.25C14.251 8.44902 14.1719 8.63989 14.0312 8.78063L11.5609 11.25H20.2506C20.4495 11.25 20.6403 11.329 20.7809 11.4697C20.9216 11.6103 21.0006 11.8011 21.0006 12C21.0006 12.1989 20.9216 12.3897 20.7809 12.5303C20.6403 12.671 20.4495 12.75 20.2506 12.75H11.5609L14.0312 15.2194C14.1719 15.3601 14.251 15.551 14.251 15.75C14.251 15.949 14.1719 16.1399 14.0312 16.2806C13.8905 16.4214 13.6996 16.5004 13.5006 16.5004C13.3016 16.5004 13.1107 16.4214 12.97 16.2806L9.21996 12.5306C9.15023 12.461 9.09491 12.3783 9.05717 12.2872C9.01943 12.1962 9 12.0986 9 12C9 11.9014 9.01943 11.8038 9.05717 11.7128C9.09491 11.6217 9.15023 11.539 9.21996 11.4694Z" fill="white"/>
</svg>
