<svg width="24" height="24" viewBox="0 0 24 24" fill="none" xmlns="http://www.w3.org/2000/svg">
<path d="M21.3984 5.91281L20.9616 5.66063C21.0128 5.38927 21.0128 5.11073 20.9616 4.83938L21.3984 4.58719C21.5707 4.48773 21.6965 4.3239 21.748 4.13173C21.7995 3.93957 21.7726 3.73481 21.6731 3.5625C21.5737 3.39019 21.4098 3.26445 21.2177 3.21294C21.0255 3.16142 20.8207 3.18836 20.6484 3.28781L20.2106 3.54094C20.0011 3.36118 19.7602 3.22165 19.5 3.12938V2.625C19.5 2.42609 19.421 2.23532 19.2803 2.09467C19.1397 1.95402 18.9489 1.875 18.75 1.875C18.5511 1.875 18.3603 1.95402 18.2197 2.09467C18.079 2.23532 18 2.42609 18 2.625V3.12938C17.7398 3.22165 17.4989 3.36118 17.2894 3.54094L16.8516 3.28781C16.7662 3.23857 16.6721 3.20661 16.5744 3.19376C16.4767 3.18091 16.3775 3.18743 16.2823 3.21294C16.1872 3.23844 16.098 3.28244 16.0198 3.34242C15.9417 3.4024 15.8761 3.47718 15.8269 3.5625C15.7776 3.64782 15.7457 3.742 15.7328 3.83967C15.72 3.93734 15.7265 4.03658 15.752 4.13173C15.7775 4.22688 15.8215 4.31608 15.8815 4.39423C15.9415 4.47237 16.0162 4.53794 16.1016 4.58719L16.5384 4.83938C16.4872 5.11073 16.4872 5.38927 16.5384 5.66063L16.1016 5.91281C15.9585 5.99533 15.8467 6.12275 15.7834 6.27532C15.7202 6.42789 15.7091 6.59706 15.7518 6.75659C15.7946 6.91612 15.8888 7.05708 16.0198 7.1576C16.1508 7.25811 16.3114 7.31256 16.4766 7.3125C16.6082 7.31291 16.7377 7.27829 16.8516 7.21219L17.2894 6.95906C17.4989 7.13882 17.7398 7.27835 18 7.37063V7.875C18 8.07391 18.079 8.26468 18.2197 8.40533C18.3603 8.54598 18.5511 8.625 18.75 8.625C18.9489 8.625 19.1397 8.54598 19.2803 8.40533C19.421 8.26468 19.5 8.07391 19.5 7.875V7.37063C19.7602 7.27835 20.0011 7.13882 20.2106 6.95906L20.6484 7.21219C20.7623 7.27829 20.8918 7.31291 21.0234 7.3125C21.1886 7.31256 21.3491 7.25811 21.4802 7.1576C21.6112 7.05708 21.7054 6.91612 21.7482 6.75659C21.7909 6.59706 21.7798 6.42789 21.7166 6.27532C21.6533 6.12275 21.5415 5.99533 21.3984 5.91281ZM18 5.25C18 5.10166 18.044 4.95666 18.1264 4.83332C18.2088 4.70999 18.3259 4.61386 18.463 4.55709C18.6 4.50032 18.7508 4.48547 18.8963 4.51441C19.0418 4.54335 19.1754 4.61478 19.2803 4.71967C19.3852 4.82456 19.4566 4.9582 19.4856 5.10368C19.5145 5.24917 19.4997 5.39997 19.4429 5.53701C19.3861 5.67406 19.29 5.79119 19.1667 5.8736C19.0433 5.95601 18.8983 6 18.75 6C18.5511 6 18.3603 5.92098 18.2197 5.78033C18.079 5.63968 18 5.44891 18 5.25ZM20.7516 9.76031C20.5554 9.79314 20.3803 9.90255 20.2648 10.0645C20.1493 10.2264 20.1028 10.4276 20.1356 10.6238C20.2118 11.0785 20.25 11.5389 20.25 12C20.2518 14.0196 19.5095 15.969 18.165 17.4759C17.3285 16.2638 16.1524 15.3261 14.7844 14.7806C15.5192 14.2019 16.0554 13.4085 16.3184 12.5108C16.5815 11.6132 16.5582 10.6559 16.2519 9.77207C15.9457 8.88825 15.3716 8.12183 14.6096 7.5794C13.8475 7.03696 12.9354 6.74548 12 6.74548C11.0646 6.74548 10.1525 7.03696 9.39043 7.5794C8.62839 8.12183 8.05432 8.88825 7.74805 9.77207C7.44178 10.6559 7.41854 11.6132 7.68157 12.5108C7.94459 13.4085 8.4808 14.2019 9.21562 14.7806C7.84764 15.3261 6.67147 16.2638 5.835 17.4759C4.78005 16.2872 4.09094 14.8189 3.85054 13.2479C3.61014 11.6768 3.82868 10.0697 4.47988 8.61981C5.13108 7.16996 6.18722 5.93908 7.5213 5.07516C8.85538 4.21125 10.4106 3.75108 12 3.75C12.4611 3.74993 12.9215 3.78818 13.3762 3.86438C13.5715 3.89519 13.7711 3.84764 13.9315 3.73208C14.0919 3.61652 14.2002 3.44229 14.2329 3.2473C14.2655 3.0523 14.2198 2.85231 14.1057 2.69082C13.9917 2.52934 13.8184 2.41943 13.6237 2.385C11.587 2.04236 9.49401 2.35588 7.64703 3.28029C5.80006 4.2047 4.29465 5.69217 3.34817 7.52793C2.40169 9.3637 2.06311 11.4528 2.38132 13.4935C2.69953 15.5342 3.65806 17.421 5.11851 18.8815C6.57897 20.3419 8.46577 21.3005 10.5065 21.6187C12.5472 21.9369 14.6363 21.5983 16.4721 20.6518C18.3078 19.7053 19.7953 18.1999 20.7197 16.353C21.6441 14.506 21.9576 12.413 21.615 10.3763C21.5822 10.1801 21.4728 10.005 21.3108 9.88947C21.1489 9.77396 20.9477 9.7275 20.7516 9.76031ZM9 11.25C9 10.6567 9.17595 10.0766 9.50559 9.58329C9.83524 9.08994 10.3038 8.70542 10.8519 8.47836C11.4001 8.2513 12.0033 8.19189 12.5853 8.30764C13.1672 8.4234 13.7018 8.70912 14.1213 9.12868C14.5409 9.54824 14.8266 10.0828 14.9424 10.6647C15.0581 11.2467 14.9987 11.8499 14.7716 12.3981C14.5446 12.9462 14.1601 13.4148 13.6667 13.7444C13.1734 14.0741 12.5933 14.25 12 14.25C11.2044 14.25 10.4413 13.9339 9.87868 13.3713C9.31607 12.8087 9 12.0457 9 11.25ZM6.945 18.5156C7.48756 17.6671 8.235 16.9688 9.11843 16.4851C10.0018 16.0013 10.9928 15.7478 12 15.7478C13.0072 15.7478 13.9982 16.0013 14.8816 16.4851C15.765 16.9688 16.5124 17.6671 17.055 18.5156C15.6097 19.6397 13.831 20.2499 12 20.2499C10.169 20.2499 8.39031 19.6397 6.945 18.5156Z" fill="white"/>
</svg>
